<svg width="20" height="20" viewBox="0 0 20 20" fill="none" xmlns="http://www.w3.org/2000/svg">
<path d="M14.8248 18.9596H5.17484C2.8915 18.9596 1.0415 17.1013 1.0415 14.8179V8.64295C1.0415 7.50961 1.7415 6.08461 2.6415 5.38461L7.13317 1.88461C8.48317 0.834614 10.6415 0.784614 12.0415 1.76795L17.1915 5.37628C18.1832 6.06795 18.9582 7.55128 18.9582 8.75961V14.8263C18.9582 17.1013 17.1082 18.9596 14.8248 18.9596ZM7.89984 2.86795L3.40817 6.36795C2.8165 6.83461 2.2915 7.89295 2.2915 8.64295V14.8179C2.2915 16.4096 3.58317 17.7096 5.17484 17.7096H14.8248C16.4165 17.7096 17.7082 16.4179 17.7082 14.8263V8.75961C17.7082 7.95961 17.1332 6.85128 16.4748 6.40128L11.3248 2.79295C10.3748 2.12628 8.80817 2.15961 7.89984 2.86795Z" fill="white"/>
<path d="M10 15.625C9.65833 15.625 9.375 15.3417 9.375 15V12.5C9.375 12.1583 9.65833 11.875 10 11.875C10.3417 11.875 10.625 12.1583 10.625 12.5V15C10.625 15.3417 10.3417 15.625 10 15.625Z" fill="white"/>
</svg>
